<svg viewBox="0 0 120 120" xmlns="http://www.w3.org/2000/svg" xmlns:bx="https://boxy-svg.com">
  <g transform="matrix(0.867384, 0, 0, 0.922522, -99.210054, -152.20563)" style="">
    <ellipse style="stroke: rgb(0, 0, 0); fill: rgb(101, 7, 0);" cx="182.995" cy="230.705" rx="64.125" ry="61.466"/>
    <ellipse style="stroke: rgb(0, 0, 0); fill: rgb(255, 255, 255);" cx="182.699" cy="231.183" rx="55.126" ry="51.714"/>
    <path style="stroke: rgb(0, 0, 0); fill: rgb(15, 146, 4);" d="M 185.063 238.27816666666664 C 185.063 238.15033333333335 185.063 237.89466666666667 185.0945 233.55516666666665 C 185.12599999999998 229.2156666666667 185.189 220.79233333333332 190.68550000000002 216.29983333333334 C 196.18200000000002 211.80733333333333 207.112 211.24566666666666 213.01933333333332 209.66316666666668 C 218.92666666666665 208.08066666666664 219.81133333333332 205.47733333333335 220.12733333333335 208.36183333333335 C 220.4433333333333 211.24633333333335 220.19066666666666 219.61866666666666 215.32583333333332 224.34066666666664 C 210.461 229.06266666666667 200.984 230.13433333333333 195.1715 231.87016666666668 C 189.359 233.606 187.211 236.006 186.13700000000003 237.206 C 185.063 238.40600000000003 185.063 238.40600000000003 185.063 238.40599999999998 C 185.063 238.40600000000003 185.063 238.40600000000003 185.063 238.27816666666664" transform="matrix(-1, 0, 0, -1, 405.282368, 445.470967)" bx:d="M 185.063 238.406 U 185.063 237.639 U 185.252 212.369 U 218.042 210.684 U 220.696 202.874 U 219.938 227.991 U 191.507 231.206 U 185.063 238.406 U 185.063 238.406 Z 1@301a46b2"/>
    <path style="stroke: rgb(0, 0, 0); fill: rgb(15, 146, 4);" d="M 185.063 268.1861666666667 C 185.063 268.05833333333334 185.063 267.8026666666667 185.0945 263.4631666666667 C 185.12599999999998 259.1236666666667 185.189 250.70033333333333 190.68550000000002 246.20783333333335 C 196.18200000000002 241.71533333333332 207.112 241.15366666666668 213.01933333333332 239.57116666666664 C 218.92666666666665 237.98866666666666 219.81133333333332 235.38533333333336 220.12733333333335 238.26983333333337 C 220.4433333333333 241.1543333333333 220.19066666666666 249.52666666666667 215.32583333333332 254.249 C 210.461 258.97133333333335 200.984 260.04366666666664 195.1715 261.7795 C 189.359 263.51533333333333 187.211 265.9146666666667 186.13700000000003 267.1143333333334 C 185.063 268.314 185.063 268.314 185.063 268.314 C 185.063 268.314 185.063 268.314 185.063 268.1861666666667" transform="matrix(-1, 0, 0, -1, 405.282368, 505.286953)" bx:d="M 185.063 268.314 U 185.063 267.547 U 185.252 242.277 U 218.042 240.592 U 220.696 232.782 U 219.938 257.899 U 191.507 261.116 U 185.063 268.314 U 185.063 268.314 Z 1@78d6ed90"/>
    <path style="stroke: rgb(0, 0, 0); fill: rgb(15, 146, 4);" d="M 144.874 207.19283333333337 C 144.874 207.32066666666665 144.874 207.57633333333334 144.9055 211.91583333333335 C 144.93699999999998 216.2553333333333 145 224.6786666666667 150.4965 229.17116666666666 C 155.993 233.66366666666667 166.923 234.22533333333334 172.83033333333333 235.80783333333332 C 178.73766666666666 237.39033333333336 179.62233333333333 239.99366666666666 179.93833333333336 237.10916666666665 C 180.25433333333334 234.22466666666665 180.00166666666667 225.85233333333335 175.13683333333333 221.13033333333337 C 170.27200000000002 216.4083333333333 160.795 215.33666666666667 154.98250000000002 213.60083333333333 C 149.17 211.865 147.02200000000002 209.465 145.948 208.26500000000001 C 144.874 207.06499999999997 144.874 207.06499999999997 144.874 207.06500000000003 C 144.874 207.06499999999997 144.874 207.06499999999997 144.874 207.19283333333337" bx:d="M 144.874 207.065 U 144.874 207.832 U 145.063 233.102 U 177.853 234.787 U 180.507 242.597 U 179.749 217.48 U 151.318 214.265 U 144.874 207.065 U 144.874 207.065 Z 1@cc1c8193"/>
    <path style="stroke: rgb(0, 0, 0); fill: rgb(15, 146, 4);" d="M 144.874 237.10083333333333 C 144.874 237.22866666666667 144.874 237.48433333333332 144.9055 241.82383333333334 C 144.93699999999998 246.16333333333333 145 254.58666666666667 150.4965 259.07916666666665 C 155.993 263.57166666666666 166.923 264.1333333333333 172.83033333333333 265.71583333333336 C 178.73766666666666 267.29833333333335 179.62233333333333 269.90166666666664 179.93833333333336 267.01716666666664 C 180.25433333333334 264.1326666666667 180.00166666666667 255.7603333333333 175.13683333333333 251.038 C 170.27200000000002 246.31566666666666 160.795 245.24333333333334 154.98250000000002 243.50749999999996 C 149.17 241.77166666666668 147.02200000000002 239.37233333333333 145.948 238.1726666666667 C 144.874 236.97300000000004 144.874 236.97300000000004 144.874 236.97299999999998 C 144.874 236.97300000000004 144.874 236.97300000000004 144.874 237.10083333333333" bx:d="M 144.874 236.973 U 144.874 237.74 U 145.063 263.01 U 177.853 264.695 U 180.507 272.505 U 179.749 247.388 U 151.318 244.171 U 144.874 236.973 U 144.874 236.973 Z 1@3672fc0a"/>
    <ellipse style="stroke: rgb(0, 0, 0); fill: rgb(253, 67, 13);" cx="182.812" cy="201.607" rx="9.751" ry="8.865"/>
    <polyline style="stroke: rgb(0, 0, 0); fill: rgb(255, 255, 255);" points="167.383 181.351 202.218 172.232 206.96 173.873 196.017 181.168"/>
  </g>
</svg>